<?xml version="1.0" encoding="UTF-8"?>
<svg xmlns="http://www.w3.org/2000/svg" version="1.0" width="512.000000pt" height="512.000000pt" viewBox="0 0 512.000000 512.000000" preserveAspectRatio="xMidYMid meet">
  <g transform="translate(0.000000,512.000000) scale(0.100000,-0.100000)" fill="#230FBF" stroke="none">
    <path d="M2460 5104 c-25 -9 -58 -26 -75 -37 -16 -12 -181 -169 -365 -349 l-335 -328 -372 0 c-350 0 -376 -1 -427 -20 -72 -27 -139 -88 -173 -158 l-28 -57 -3 -376 -3 -376 -166 -164 c-133 -132 -171 -176 -194 -224 l-29 -60 0 -482 0 -482 22 -21 c37 -34 90 -25 113 21 13 23 15 104 15 490 l0 461 805 -797 c443 -439 805 -800 805 -804 0 -3 -361 -204 -803 -447 l-802 -441 -5 639 -5 640 -24 19 c-28 22 -69 25 -97 5 -18 -14 -19 -36 -24 -728 -3 -472 -1 -732 5 -769 19 -101 88 -188 184 -233 l46 -21 1438 -3 1438 -2 24 24 c32 32 32 70 0 101 l-24 25 -1413 0 c-1356 0 -1415 1 -1454 19 -41 19 -79 61 -86 94 -2 15 192 126 1027 585 1009 556 1031 567 1085 567 53 0 71 -9 545 -269 1585 -872 1570 -864 1567 -882 -7 -34 -45 -76 -86 -95 -38 -17 -73 -19 -472 -19 -421 0 -432 0 -458 -21 -36 -28 -36 -80 0 -108 26 -21 37 -21 464 -21 483 0 502 2 582 63 50 38 103 112 118 165 7 25 10 484 10 1382 l0 1345 -28 60 c-23 49 -59 90 -195 224 l-167 165 0 97 c0 79 -3 101 -18 120 -27 33 -78 30 -109 -5 l-23 -27 0 -407 0 -407 -680 -680 -680 -680 -63 33 c-228 122 -215 117 -307 117 -92 0 -75 7 -307 -117 l-63 -33 -680 680 -680 680 0 670 0 670 23 40 c13 22 40 49 62 62 l40 23 1605 0 1605 0 40 -23 c22 -13 49 -40 62 -62 20 -35 23 -54 23 -161 0 -107 2 -124 21 -148 26 -33 79 -36 110 -5 20 20 21 30 17 167 -3 137 -5 151 -31 204 -34 70 -101 131 -173 158 -51 19 -78 20 -427 20 l-372 1 -345 337 c-260 255 -357 343 -395 361 -65 31 -172 38 -235 15z m167 -149 c23 -10 135 -113 307 -283 149 -147 273 -270 274 -274 2 -5 -290 -8 -648 -8 -358 0 -650 3 -648 8 11 26 550 544 578 556 45 20 92 20 137 1z m-1947 -1897 l0 -133 -67 67 -68 68 65 65 c35 36 66 65 67 65 2 0 3 -60 3 -132z m3827 -65 l-67 -68 0 135 0 135 67 -68 68 -67 -68 -67z m171 -1915 l-3 -624 -795 437 c-437 241 -799 440 -805 443 -5 3 352 364 795 804 l805 800 3 -618 c1 -340 1 -899 0 -1242z"></path>
    <path d="M2380 3789 c-238 -62 -419 -221 -513 -449 -187 -452 110 -963 599 -1030 89 -12 126 -4 143 29 33 60 -4 105 -94 115 -435 49 -680 491 -488 879 26 52 58 94 117 152 124 124 247 175 421 175 174 0 297 -51 421 -175 144 -143 197 -302 160 -476 -33 -153 -84 -230 -161 -245 -50 -9 -83 2 -100 36 -12 24 -15 83 -15 355 0 312 -1 326 -20 345 -30 30 -83 27 -109 -6 -12 -15 -21 -38 -21 -51 0 -14 -3 -23 -7 -21 -77 40 -91 43 -183 43 -86 0 -100 -3 -148 -29 -156 -87 -237 -273 -199 -460 21 -102 54 -170 114 -230 100 -102 238 -130 354 -73 31 15 64 36 73 46 18 19 19 19 50 -21 17 -23 51 -52 76 -66 39 -20 55 -23 115 -19 164 10 271 119 325 332 39 151 24 298 -45 440 -96 201 -280 350 -499 405 -106 27 -263 26 -366 -1z m231 -484 c71 -37 115 -146 107 -264 -12 -163 -123 -277 -233 -241 -122 40 -191 209 -146 362 16 55 72 125 115 144 42 18 120 17 157 -1z"></path>
  </g>
</svg>
