<?xml version="1.0" encoding="UTF-8"?>
<svg xmlns="http://www.w3.org/2000/svg" version="1.0" width="512.000000pt" height="512.000000pt" viewBox="0 0 512.000000 512.000000" preserveAspectRatio="xMidYMid meet">
  <g transform="translate(0.000000,512.000000) scale(0.100000,-0.100000)" fill="#230FBF" stroke="none">
    <path d="M2362 5110 c-177 -23 -400 -89 -546 -162 -506 -255 -850 -752 -916 -1323 -33 -294 27 -631 162 -899 50 -99 294 -524 316 -548 37 -43 122 -8 122 50 0 17 -56 125 -150 289 -83 144 -169 306 -192 359 -277 664 -39 1440 565 1844 150 100 344 180 541 222 146 31 446 31 592 0 151 -33 246 -66 389 -137 159 -79 269 -161 400 -296 371 -384 515 -913 386 -1421 -16 -64 -49 -163 -73 -220 -44 -102 -1310 -2309 -1351 -2355 -12 -13 -32 -23 -47 -23 -15 0 -35 10 -47 23 -11 12 -208 348 -438 747 -229 399 -424 733 -433 743 -21 24 -77 22 -102 -3 -11 -11 -20 -33 -20 -49 0 -20 99 -200 314 -573 l314 -543 -389 -5 c-351 -5 -390 -7 -406 -22 -26 -26 -22 -86 6 -109 22 -18 48 -19 451 -19 l428 0 71 -124 c39 -68 84 -136 99 -151 97 -99 257 -81 335 38 18 29 58 94 87 145 l53 92 860 -2 861 -3 153 -259 c84 -142 153 -260 153 -262 0 -2 -1057 -4 -2350 -4 -1292 0 -2350 2 -2350 4 0 2 69 120 153 262 l153 259 304 5 c168 3 306 7 308 8 15 11 29 70 21 91 -19 50 -23 50 -347 51 -329 0 -343 -2 -394 -56 -14 -16 -103 -160 -197 -320 -196 -333 -199 -343 -137 -412 l34 -37 2452 0 2452 0 34 37 c62 69 59 79 -137 412 -165 281 -201 335 -244 359 -15 9 -246 13 -856 17 l-837 5 515 890 c283 490 537 935 564 989 165 324 216 704 144 1060 -135 667 -637 1174 -1299 1312 -137 28 -404 40 -534 24z"></path>
    <path d="M2345 4714 c-318 -57 -601 -232 -791 -490 -163 -219 -244 -467 -244 -744 0 -147 19 -268 60 -392 147 -439 511 -755 971 -843 111 -21 327 -21 438 0 378 72 689 294 875 623 72 128 146 351 146 443 0 97 -129 107 -145 11 -81 -477 -429 -839 -894 -928 -91 -18 -294 -20 -383 -4 -429 76 -768 385 -885 807 -25 90 -28 113 -28 278 0 153 3 193 22 266 29 113 87 248 148 340 59 89 227 260 310 314 191 125 386 184 611 185 308 1 578 -113 796 -334 149 -152 247 -340 293 -566 17 -83 38 -110 86 -110 16 0 38 9 50 21 19 19 21 29 16 83 -9 89 -51 227 -107 343 -177 372 -515 627 -924 698 -110 19 -313 18 -421 -1z"></path>
    <path d="M1925 4181 c-11 -5 -31 -21 -45 -36 l-25 -27 -3 -629 c-3 -692 -4 -672 58 -704 44 -23 1256 -23 1300 0 62 32 61 12 58 705 l-3 630 -33 32 -32 33 -628 2 c-345 1 -636 -2 -647 -6z m405 -251 c0 -182 10 -190 230 -190 220 0 230 8 230 190 l0 110 165 0 165 0 0 -560 0 -560 -560 0 -560 0 0 560 0 560 165 0 165 0 0 -110z m310 35 l0 -75 -80 0 -80 0 0 75 0 75 80 0 80 0 0 -75z"></path>
    <path d="M2255 1971 c-49 -21 -64 -83 -30 -121 17 -19 30 -20 335 -20 305 0 318 1 335 20 25 28 23 76 -4 103 -21 22 -27 22 -319 24 -163 1 -306 -2 -317 -6z"></path>
    <path d="M2229 1642 c-33 -27 -30 -78 5 -109 l27 -23 299 0 c299 0 299 0 326 23 34 30 36 83 3 109 -19 16 -50 18 -329 18 -284 0 -310 -1 -331 -18z"></path>
  </g>
</svg>
