<?xml version="1.0" encoding="UTF-8"?>
<svg xmlns="http://www.w3.org/2000/svg" version="1.0" width="512.000000pt" height="512.000000pt" viewBox="0 0 512.000000 512.000000" preserveAspectRatio="xMidYMid meet">
  <g transform="translate(0.000000,512.000000) scale(0.100000,-0.100000)" fill="#230FBF" stroke="none">
    <path d="M1926 5109 c-409 -53 -784 -319 -972 -692 -49 -96 -93 -219 -120 -337 -16 -68 -18 -159 -21 -935 -3 -604 -1 -871 7 -897 14 -50 56 -97 105 -119 36 -17 71 -19 368 -19 l327 0 0 -28 c0 -25 -12 -37 -100 -95 l-100 -67 -229 0 c-128 0 -254 -5 -283 -11 -199 -41 -379 -216 -433 -419 -22 -82 -21 -467 1 -498 21 -30 83 -31 110 -1 17 19 20 43 24 243 5 185 9 228 25 266 44 106 119 184 224 234 l66 31 231 3 232 3 17 -98 c101 -568 100 -562 130 -593 30 -31 79 -46 118 -36 13 3 95 59 182 124 88 65 166 121 173 125 9 7 12 -109 12 -567 l0 -576 -445 0 -445 0 0 294 c0 282 -1 294 -21 320 -26 33 -79 36 -109 6 -19 -19 -20 -33 -20 -320 l0 -300 -182 2 -183 3 -5 293 -5 294 -28 24 c-34 29 -56 30 -91 3 l-26 -20 0 -311 0 -311 25 -43 c16 -28 39 -49 68 -63 l43 -21 1500 0 c1433 0 1501 1 1539 19 98 45 104 70 105 434 l0 299 -30 30 c-25 24 -36 29 -58 24 -61 -15 -62 -20 -62 -336 0 -159 -3 -295 -6 -304 -5 -14 -31 -16 -185 -16 l-178 0 -3 299 c-3 278 -4 300 -22 320 -25 27 -86 29 -109 3 -15 -16 -17 -54 -17 -320 l0 -302 -450 0 -450 0 0 575 c0 316 2 575 5 575 2 0 75 -52 161 -116 86 -64 168 -123 183 -130 59 -31 134 -3 161 60 10 23 41 180 71 349 l53 308 236 -3 235 -3 66 -32 c121 -59 215 -182 239 -312 5 -29 10 -129 10 -221 0 -184 5 -202 62 -216 22 -5 33 0 58 24 l30 30 0 172 c0 250 -24 348 -116 477 -51 72 -121 131 -204 173 -104 53 -155 60 -414 60 l-236 0 -95 66 c-83 57 -95 69 -95 94 l0 29 338 3 338 3 41 27 c24 16 49 44 62 70 20 43 21 56 21 491 0 351 3 447 13 447 6 0 44 -7 82 -15 92 -19 272 -19 375 1 320 60 604 287 730 582 64 151 75 211 74 402 0 209 -15 278 -97 440 -39 78 -59 108 -80 118 -38 18 -81 1 -98 -40 -11 -27 -8 -37 34 -121 71 -143 89 -211 94 -367 4 -114 2 -149 -16 -223 -77 -323 -334 -576 -653 -641 -95 -20 -261 -20 -350 -2 -456 97 -753 547 -659 1002 37 177 115 318 249 446 302 288 733 317 1091 72 71 -49 71 -49 110 -29 52 26 55 78 9 122 -169 158 -500 251 -759 214 -203 -30 -375 -111 -539 -251 l-55 -48 -80 59 c-266 194 -601 280 -929 238z m319 -149 c212 -30 398 -112 579 -254 18 -14 18 -16 -2 -43 -71 -101 -137 -285 -154 -434 l-12 -99 -65 -39 c-259 -153 -566 -250 -916 -291 -55 -7 -190 -13 -299 -14 l-199 -3 -24 -27 -23 -27 0 -413 c0 -328 3 -430 15 -493 37 -197 115 -352 250 -500 l57 -63 -234 0 c-169 0 -237 3 -246 12 -15 15 -17 1557 -2 1688 52 458 375 839 816 965 152 43 312 56 459 35z m451 -1099 c28 -111 91 -243 161 -336 l53 -70 0 -175 c0 -126 -4 -193 -15 -235 -51 -194 -211 -337 -410 -366 -53 -8 -80 -9 -82 -2 -15 44 -66 102 -114 128 -53 29 -57 30 -194 30 -138 0 -141 0 -195 -31 -164 -93 -164 -322 0 -414 40 -22 59 -25 170 -28 182 -5 245 17 305 109 29 45 32 47 90 53 128 15 269 68 342 130 17 14 34 26 37 26 13 0 -59 -129 -110 -196 -115 -152 -286 -259 -477 -298 -382 -79 -771 132 -916 496 -55 138 -61 192 -61 586 l0 358 213 12 c425 23 760 107 1069 266 57 30 105 52 107 50 2 -2 14 -44 27 -93z m435 -591 c33 -21 70 -42 80 -45 18 -6 19 -23 19 -474 0 -350 -3 -470 -12 -479 -9 -9 -77 -12 -246 -12 l-234 0 57 63 c101 110 167 219 211 351 43 125 54 214 54 432 0 112 2 204 5 204 2 0 32 -18 66 -40z m-901 -605 c34 -31 42 -61 25 -101 -18 -45 -46 -54 -160 -54 -114 0 -142 9 -160 54 -16 39 -9 70 21 97 28 25 49 28 156 26 80 -2 100 -6 118 -22z m-373 -617 c66 -20 102 -23 238 -23 136 0 172 3 238 23 94 27 99 27 95 4 -4 -27 -321 -462 -333 -458 -19 5 -324 431 -324 454 -1 12 1 22 4 22 3 0 40 -10 82 -22z m799 -253 c-2 -11 -26 -145 -52 -297 -27 -153 -52 -278 -57 -278 -4 0 -84 56 -177 125 l-169 126 160 219 160 220 70 -47 c53 -37 68 -53 65 -68z m-820 -111 c122 -167 154 -218 143 -224 -8 -5 -86 -63 -174 -128 -147 -110 -161 -118 -167 -98 -6 16 -92 498 -101 565 -2 15 108 100 130 101 7 0 83 -97 169 -216z"></path>
    <path d="M3270 4525 c-62 -20 -118 -69 -146 -129 -29 -63 -30 -86 -3 -120 27 -34 77 -36 107 -3 12 13 22 30 22 39 0 22 44 66 74 74 56 14 116 -34 116 -91 -1 -50 -31 -101 -175 -299 -149 -204 -158 -225 -115 -271 l23 -25 202 0 c198 0 202 0 223 23 28 30 29 78 1 103 -17 16 -41 20 -136 24 l-114 5 87 120 c144 200 175 286 142 399 -18 60 -92 131 -159 150 -63 19 -89 19 -149 1z"></path>
    <path d="M3985 4516 c-46 -20 -74 -58 -193 -269 -163 -286 -162 -285 -119 -325 22 -21 33 -22 170 -22 l147 0 0 -80 c0 -89 17 -120 66 -120 60 0 84 41 84 141 0 50 3 59 18 59 59 0 84 91 36 129 -15 12 -33 21 -40 21 -10 0 -13 45 -16 198 -3 220 -9 241 -75 268 -39 17 -40 17 -78 0z m5 -351 l0 -115 -69 0 -70 0 66 115 c36 63 67 115 69 115 2 0 4 -52 4 -115z"></path>
    <path d="M2445 465 c-32 -31 -32 -69 0 -100 24 -25 26 -25 215 -25 189 0 191 0 215 25 14 13 25 36 25 50 0 14 -11 37 -25 50 -24 25 -26 25 -215 25 -189 0 -191 0 -215 -25z"></path>
  </g>
</svg>
